<mxfile host="app.diagrams.net" agent="Mozilla/5.0 (Windows NT 10.0; Win64; x64) AppleWebKit/537.36 (KHTML, like Gecko) Chrome/126.0.0.0 Whale/3.27.254.15 Safari/537.36" version="24.7.7">
  <diagram name="Page-1" id="2YBvvXClWsGukQMizWep">
    <mxGraphModel dx="1063" dy="1230" grid="0" gridSize="10" guides="1" tooltips="1" connect="1" arrows="1" fold="1" page="1" pageScale="1" pageWidth="850" pageHeight="1100" background="#ffffff" math="0" shadow="0">
      <root>
        <mxCell id="0" />
        <mxCell id="1" parent="0" />
        <mxCell id="cfnXL0_D_r5Tfxj7R-Hh-127" value="linkRepository:&lt;div&gt;LinkRepository&lt;br&gt;&lt;/div&gt;" style="shape=umlLifeline;perimeter=lifelinePerimeter;whiteSpace=wrap;html=1;container=1;dropTarget=0;collapsible=0;recursiveResize=0;outlineConnect=0;portConstraint=eastwest;newEdgeStyle={&quot;curved&quot;:0,&quot;rounded&quot;:0};" vertex="1" parent="1">
          <mxGeometry x="1620" y="40" width="120" height="2000" as="geometry" />
        </mxCell>
        <mxCell id="cfnXL0_D_r5Tfxj7R-Hh-129" value="" style="html=1;points=[[0,0,0,0,5],[0,1,0,0,-5],[1,0,0,0,5],[1,1,0,0,-5]];perimeter=orthogonalPerimeter;outlineConnect=0;targetShapes=umlLifeline;portConstraint=eastwest;newEdgeStyle={&quot;curved&quot;:0,&quot;rounded&quot;:0};" vertex="1" parent="cfnXL0_D_r5Tfxj7R-Hh-127">
          <mxGeometry x="55" y="90" width="10" height="70" as="geometry" />
        </mxCell>
        <mxCell id="wIJfSZoXNWVGFBedrrD1-6" value="" style="shape=umlLifeline;perimeter=lifelinePerimeter;whiteSpace=wrap;html=1;container=1;dropTarget=0;collapsible=0;recursiveResize=0;outlineConnect=0;portConstraint=eastwest;newEdgeStyle={&quot;curved&quot;:0,&quot;rounded&quot;:0};participant=umlActor;" parent="1" vertex="1">
          <mxGeometry x="49" y="40" width="20" height="2000" as="geometry" />
        </mxCell>
        <mxCell id="wIJfSZoXNWVGFBedrrD1-9" value="routeController: RouteController" style="shape=umlLifeline;perimeter=lifelinePerimeter;whiteSpace=wrap;html=1;container=1;dropTarget=0;collapsible=0;recursiveResize=0;outlineConnect=0;portConstraint=eastwest;newEdgeStyle={&quot;curved&quot;:0,&quot;rounded&quot;:0};" parent="1" vertex="1">
          <mxGeometry x="180" y="40" width="120" height="2000" as="geometry" />
        </mxCell>
        <mxCell id="cfnXL0_D_r5Tfxj7R-Hh-169" value="" style="html=1;points=[[0,0,0,0,5],[0,1,0,0,-5],[1,0,0,0,5],[1,1,0,0,-5]];perimeter=orthogonalPerimeter;outlineConnect=0;targetShapes=umlLifeline;portConstraint=eastwest;newEdgeStyle={&quot;curved&quot;:0,&quot;rounded&quot;:0};" vertex="1" parent="wIJfSZoXNWVGFBedrrD1-9">
          <mxGeometry x="55" y="1739" width="10" height="80" as="geometry" />
        </mxCell>
        <mxCell id="wIJfSZoXNWVGFBedrrD1-10" value="routeService: RouteService" style="shape=umlLifeline;perimeter=lifelinePerimeter;whiteSpace=wrap;html=1;container=1;dropTarget=0;collapsible=0;recursiveResize=0;outlineConnect=0;portConstraint=eastwest;newEdgeStyle={&quot;curved&quot;:0,&quot;rounded&quot;:0};" parent="1" vertex="1">
          <mxGeometry x="360" y="40" width="120" height="2000" as="geometry" />
        </mxCell>
        <mxCell id="wIJfSZoXNWVGFBedrrD1-11" value="linkStore:&lt;div&gt;LinkStore&lt;/div&gt;" style="shape=umlLifeline;perimeter=lifelinePerimeter;whiteSpace=wrap;html=1;container=1;dropTarget=0;collapsible=0;recursiveResize=0;outlineConnect=0;portConstraint=eastwest;newEdgeStyle={&quot;curved&quot;:0,&quot;rounded&quot;:0};" parent="1" vertex="1">
          <mxGeometry x="1439" y="40" width="120" height="2000" as="geometry" />
        </mxCell>
        <mxCell id="cfnXL0_D_r5Tfxj7R-Hh-142" value="" style="html=1;points=[[0,0,0,0,5],[0,1,0,0,-5],[1,0,0,0,5],[1,1,0,0,-5]];perimeter=orthogonalPerimeter;outlineConnect=0;targetShapes=umlLifeline;portConstraint=eastwest;newEdgeStyle={&quot;curved&quot;:0,&quot;rounded&quot;:0};" vertex="1" parent="wIJfSZoXNWVGFBedrrD1-11">
          <mxGeometry x="55" y="1566" width="10" height="57" as="geometry" />
        </mxCell>
        <mxCell id="cfnXL0_D_r5Tfxj7R-Hh-166" value="" style="html=1;points=[[0,0,0,0,5],[0,1,0,0,-5],[1,0,0,0,5],[1,1,0,0,-5]];perimeter=orthogonalPerimeter;outlineConnect=0;targetShapes=umlLifeline;portConstraint=eastwest;newEdgeStyle={&quot;curved&quot;:0,&quot;rounded&quot;:0};" vertex="1" parent="wIJfSZoXNWVGFBedrrD1-11">
          <mxGeometry x="55" y="547" width="10" height="50" as="geometry" />
        </mxCell>
        <mxCell id="wIJfSZoXNWVGFBedrrD1-12" value="indicatorRepository:&lt;div&gt;IndicatorRepository&lt;/div&gt;" style="shape=umlLifeline;perimeter=lifelinePerimeter;whiteSpace=wrap;html=1;container=1;dropTarget=0;collapsible=0;recursiveResize=0;outlineConnect=0;portConstraint=eastwest;newEdgeStyle={&quot;curved&quot;:0,&quot;rounded&quot;:0};" parent="1" vertex="1">
          <mxGeometry x="1800" y="40" width="120" height="2000" as="geometry" />
        </mxCell>
        <mxCell id="cfnXL0_D_r5Tfxj7R-Hh-135" value="" style="html=1;verticalAlign=bottom;endArrow=block;curved=0;rounded=0;entryX=0;entryY=0;entryDx=0;entryDy=5;" edge="1" parent="wIJfSZoXNWVGFBedrrD1-12">
          <mxGeometry relative="1" as="geometry">
            <mxPoint x="-285" y="1571" as="sourcePoint" />
            <mxPoint x="-285" y="1571" as="targetPoint" />
          </mxGeometry>
        </mxCell>
        <mxCell id="cfnXL0_D_r5Tfxj7R-Hh-136" value="" style="html=1;verticalAlign=bottom;endArrow=open;dashed=1;endSize=8;curved=0;rounded=0;exitX=0;exitY=1;exitDx=0;exitDy=-5;" edge="1" parent="wIJfSZoXNWVGFBedrrD1-12">
          <mxGeometry relative="1" as="geometry">
            <mxPoint x="-285" y="1618" as="targetPoint" />
            <mxPoint x="-285" y="1618" as="sourcePoint" />
          </mxGeometry>
        </mxCell>
        <mxCell id="cfnXL0_D_r5Tfxj7R-Hh-21" value="" style="html=1;points=[[0,0,0,0,5],[0,1,0,0,-5],[1,0,0,0,5],[1,1,0,0,-5]];perimeter=orthogonalPerimeter;outlineConnect=0;targetShapes=umlLifeline;portConstraint=eastwest;newEdgeStyle={&quot;curved&quot;:0,&quot;rounded&quot;:0};" vertex="1" parent="wIJfSZoXNWVGFBedrrD1-12">
          <mxGeometry x="55" y="1251" width="10" height="57" as="geometry" />
        </mxCell>
        <mxCell id="wIJfSZoXNWVGFBedrrD1-13" value="realTimeResolver:&lt;div&gt;RealTimeResolver&lt;/div&gt;" style="shape=umlLifeline;perimeter=lifelinePerimeter;whiteSpace=wrap;html=1;container=1;dropTarget=0;collapsible=0;recursiveResize=0;outlineConnect=0;portConstraint=eastwest;newEdgeStyle={&quot;curved&quot;:0,&quot;rounded&quot;:0};" parent="1" vertex="1">
          <mxGeometry x="539" y="40" width="120" height="2000" as="geometry" />
        </mxCell>
        <mxCell id="wIJfSZoXNWVGFBedrrD1-14" value="tsiPrediction:&lt;div&gt;TSIPrediction&lt;/div&gt;" style="shape=umlLifeline;perimeter=lifelinePerimeter;whiteSpace=wrap;html=1;container=1;dropTarget=0;collapsible=0;recursiveResize=0;outlineConnect=0;portConstraint=eastwest;newEdgeStyle={&quot;curved&quot;:0,&quot;rounded&quot;:0};" parent="1" vertex="1">
          <mxGeometry x="719" y="40" width="120" height="2000" as="geometry" />
        </mxCell>
        <mxCell id="cfnXL0_D_r5Tfxj7R-Hh-167" value="도로 정보 요청" style="html=1;verticalAlign=bottom;endArrow=block;curved=0;rounded=0;entryX=0;entryY=0;entryDx=0;entryDy=5;" edge="1" parent="wIJfSZoXNWVGFBedrrD1-14" target="cfnXL0_D_r5Tfxj7R-Hh-166">
          <mxGeometry relative="1" as="geometry">
            <mxPoint x="-121.16666666666652" y="552" as="sourcePoint" />
          </mxGeometry>
        </mxCell>
        <mxCell id="cfnXL0_D_r5Tfxj7R-Hh-168" value="도로 정보 반환" style="html=1;verticalAlign=bottom;endArrow=open;dashed=1;endSize=8;curved=0;rounded=0;exitX=0;exitY=1;exitDx=0;exitDy=-5;" edge="1" parent="wIJfSZoXNWVGFBedrrD1-14" source="cfnXL0_D_r5Tfxj7R-Hh-166">
          <mxGeometry x="0.0016" relative="1" as="geometry">
            <mxPoint x="-121.16666666666652" y="592" as="targetPoint" />
            <mxPoint as="offset" />
          </mxGeometry>
        </mxCell>
        <mxCell id="wIJfSZoXNWVGFBedrrD1-15" value="tciPrediction:&lt;br&gt;TCIPrediction" style="shape=umlLifeline;perimeter=lifelinePerimeter;whiteSpace=wrap;html=1;container=1;dropTarget=0;collapsible=0;recursiveResize=0;outlineConnect=0;portConstraint=eastwest;newEdgeStyle={&quot;curved&quot;:0,&quot;rounded&quot;:0};" parent="1" vertex="1">
          <mxGeometry x="899" y="40" width="120" height="2000" as="geometry" />
        </mxCell>
        <mxCell id="cfnXL0_D_r5Tfxj7R-Hh-39" value="" style="html=1;points=[[0,0,0,0,5],[0,1,0,0,-5],[1,0,0,0,5],[1,1,0,0,-5]];perimeter=orthogonalPerimeter;outlineConnect=0;targetShapes=umlLifeline;portConstraint=eastwest;newEdgeStyle={&quot;curved&quot;:0,&quot;rounded&quot;:0};" vertex="1" parent="wIJfSZoXNWVGFBedrrD1-15">
          <mxGeometry x="55" y="757" width="10" height="50" as="geometry" />
        </mxCell>
        <mxCell id="wIJfSZoXNWVGFBedrrD1-16" value="travelTimePrediction:&lt;div&gt;travelTimePrediction&lt;/div&gt;" style="shape=umlLifeline;perimeter=lifelinePerimeter;whiteSpace=wrap;html=1;container=1;dropTarget=0;collapsible=0;recursiveResize=0;outlineConnect=0;portConstraint=eastwest;newEdgeStyle={&quot;curved&quot;:0,&quot;rounded&quot;:0};" parent="1" vertex="1">
          <mxGeometry x="1079" y="40" width="120" height="2000" as="geometry" />
        </mxCell>
        <mxCell id="cfnXL0_D_r5Tfxj7R-Hh-57" value="" style="html=1;points=[[0,0,0,0,5],[0,1,0,0,-5],[1,0,0,0,5],[1,1,0,0,-5]];perimeter=orthogonalPerimeter;outlineConnect=0;targetShapes=umlLifeline;portConstraint=eastwest;newEdgeStyle={&quot;curved&quot;:0,&quot;rounded&quot;:0};" vertex="1" parent="wIJfSZoXNWVGFBedrrD1-16">
          <mxGeometry x="55" y="859" width="10" height="55" as="geometry" />
        </mxCell>
        <mxCell id="cfnXL0_D_r5Tfxj7R-Hh-29" value="" style="html=1;points=[[0,0,0,0,5],[0,1,0,0,-5],[1,0,0,0,5],[1,1,0,0,-5]];perimeter=orthogonalPerimeter;outlineConnect=0;targetShapes=umlLifeline;portConstraint=eastwest;newEdgeStyle={&quot;curved&quot;:0,&quot;rounded&quot;:0};" vertex="1" parent="1">
          <mxGeometry x="774" y="702" width="10" height="50" as="geometry" />
        </mxCell>
        <mxCell id="cfnXL0_D_r5Tfxj7R-Hh-30" value="실시간 정보, 도로 정보 전달" style="html=1;verticalAlign=bottom;endArrow=block;curved=0;rounded=0;entryX=0;entryY=0;entryDx=0;entryDy=5;" edge="1" target="cfnXL0_D_r5Tfxj7R-Hh-29" parent="1">
          <mxGeometry relative="1" as="geometry">
            <mxPoint x="597.8333333333335" y="707" as="sourcePoint" />
          </mxGeometry>
        </mxCell>
        <mxCell id="cfnXL0_D_r5Tfxj7R-Hh-31" value="교통안전지수&amp;nbsp;반환" style="html=1;verticalAlign=bottom;endArrow=open;dashed=1;endSize=8;curved=0;rounded=0;exitX=0;exitY=1;exitDx=0;exitDy=-5;" edge="1" source="cfnXL0_D_r5Tfxj7R-Hh-29" parent="1">
          <mxGeometry x="0.0016" relative="1" as="geometry">
            <mxPoint x="597.8333333333335" y="747" as="targetPoint" />
            <mxPoint as="offset" />
          </mxGeometry>
        </mxCell>
        <mxCell id="cfnXL0_D_r5Tfxj7R-Hh-43" value="reiEvaluator:&lt;div&gt;REIEvaluator&lt;/div&gt;" style="shape=umlLifeline;perimeter=lifelinePerimeter;whiteSpace=wrap;html=1;container=1;dropTarget=0;collapsible=0;recursiveResize=0;outlineConnect=0;portConstraint=eastwest;newEdgeStyle={&quot;curved&quot;:0,&quot;rounded&quot;:0};" vertex="1" parent="1">
          <mxGeometry x="1259" y="40" width="120" height="2000" as="geometry" />
        </mxCell>
        <mxCell id="cfnXL0_D_r5Tfxj7R-Hh-61" value="" style="html=1;points=[[0,0,0,0,5],[0,1,0,0,-5],[1,0,0,0,5],[1,1,0,0,-5]];perimeter=orthogonalPerimeter;outlineConnect=0;targetShapes=umlLifeline;portConstraint=eastwest;newEdgeStyle={&quot;curved&quot;:0,&quot;rounded&quot;:0};" vertex="1" parent="cfnXL0_D_r5Tfxj7R-Hh-43">
          <mxGeometry x="55" y="940" width="10" height="55" as="geometry" />
        </mxCell>
        <mxCell id="cfnXL0_D_r5Tfxj7R-Hh-41" value="교통혼잡지수&amp;nbsp;반환" style="html=1;verticalAlign=bottom;endArrow=open;dashed=1;endSize=8;curved=0;rounded=0;exitX=0;exitY=1;exitDx=0;exitDy=-5;" edge="1" parent="1" source="cfnXL0_D_r5Tfxj7R-Hh-39">
          <mxGeometry relative="1" as="geometry">
            <mxPoint x="597.8333333333335" y="842" as="targetPoint" />
          </mxGeometry>
        </mxCell>
        <mxCell id="cfnXL0_D_r5Tfxj7R-Hh-40" value="실시간 정보, 도로 정보 전달" style="html=1;verticalAlign=bottom;endArrow=block;curved=0;rounded=0;entryX=0;entryY=0;entryDx=0;entryDy=5;" edge="1" parent="1" target="cfnXL0_D_r5Tfxj7R-Hh-39">
          <mxGeometry relative="1" as="geometry">
            <mxPoint x="597.8333333333335" y="802" as="sourcePoint" />
          </mxGeometry>
        </mxCell>
        <mxCell id="cfnXL0_D_r5Tfxj7R-Hh-50" value="기상청" style="shape=umlLifeline;perimeter=lifelinePerimeter;whiteSpace=wrap;html=1;container=1;dropTarget=0;collapsible=0;recursiveResize=0;outlineConnect=0;portConstraint=eastwest;newEdgeStyle={&quot;curved&quot;:0,&quot;rounded&quot;:0};" vertex="1" parent="1">
          <mxGeometry x="1980" y="40" width="120" height="2000" as="geometry" />
        </mxCell>
        <mxCell id="cfnXL0_D_r5Tfxj7R-Hh-52" value="교통정보센터" style="shape=umlLifeline;perimeter=lifelinePerimeter;whiteSpace=wrap;html=1;container=1;dropTarget=0;collapsible=0;recursiveResize=0;outlineConnect=0;portConstraint=eastwest;newEdgeStyle={&quot;curved&quot;:0,&quot;rounded&quot;:0};" vertex="1" parent="1">
          <mxGeometry x="2160" y="40" width="120" height="2000" as="geometry" />
        </mxCell>
        <mxCell id="cfnXL0_D_r5Tfxj7R-Hh-70" value="" style="html=1;points=[[0,0,0,0,5],[0,1,0,0,-5],[1,0,0,0,5],[1,1,0,0,-5]];perimeter=orthogonalPerimeter;outlineConnect=0;targetShapes=umlLifeline;portConstraint=eastwest;newEdgeStyle={&quot;curved&quot;:0,&quot;rounded&quot;:0};" vertex="1" parent="cfnXL0_D_r5Tfxj7R-Hh-52">
          <mxGeometry x="55" y="422" width="10" height="64" as="geometry" />
        </mxCell>
        <mxCell id="cfnXL0_D_r5Tfxj7R-Hh-58" value="실시간 정보, 도로 정보, 교통혼잡지수 전달" style="html=1;verticalAlign=bottom;endArrow=block;curved=0;rounded=0;entryX=0;entryY=0;entryDx=0;entryDy=5;" edge="1" target="cfnXL0_D_r5Tfxj7R-Hh-57" parent="1">
          <mxGeometry x="0.0013" relative="1" as="geometry">
            <mxPoint x="597.8333333333335" y="904" as="sourcePoint" />
            <mxPoint as="offset" />
          </mxGeometry>
        </mxCell>
        <mxCell id="cfnXL0_D_r5Tfxj7R-Hh-59" value="도로통행시간 반환" style="html=1;verticalAlign=bottom;endArrow=open;dashed=1;endSize=8;curved=0;rounded=0;exitX=0;exitY=1;exitDx=0;exitDy=-5;" edge="1" source="cfnXL0_D_r5Tfxj7R-Hh-57" parent="1">
          <mxGeometry relative="1" as="geometry">
            <mxPoint x="597.8333333333335" y="949" as="targetPoint" />
          </mxGeometry>
        </mxCell>
        <mxCell id="cfnXL0_D_r5Tfxj7R-Hh-62" value="교통안전지수, 도로통행시간 전달" style="html=1;verticalAlign=bottom;endArrow=block;curved=0;rounded=0;entryX=0;entryY=0;entryDx=0;entryDy=5;" edge="1" parent="1" target="cfnXL0_D_r5Tfxj7R-Hh-61">
          <mxGeometry relative="1" as="geometry">
            <mxPoint x="597.8333333333335" y="985" as="sourcePoint" />
          </mxGeometry>
        </mxCell>
        <mxCell id="cfnXL0_D_r5Tfxj7R-Hh-63" value="경로평가지수 반환" style="html=1;verticalAlign=bottom;endArrow=open;dashed=1;endSize=8;curved=0;rounded=0;exitX=0;exitY=1;exitDx=0;exitDy=-5;" edge="1" parent="1" source="cfnXL0_D_r5Tfxj7R-Hh-61">
          <mxGeometry relative="1" as="geometry">
            <mxPoint x="597.8333333333335" y="1030" as="targetPoint" />
          </mxGeometry>
        </mxCell>
        <mxCell id="cfnXL0_D_r5Tfxj7R-Hh-67" value="실시간 기상 정보 요청" style="html=1;verticalAlign=bottom;endArrow=block;curved=0;rounded=0;entryX=0;entryY=0;entryDx=0;entryDy=5;" edge="1" target="cfnXL0_D_r5Tfxj7R-Hh-66" parent="1">
          <mxGeometry relative="1" as="geometry">
            <mxPoint x="598.5" y="331" as="sourcePoint" />
          </mxGeometry>
        </mxCell>
        <mxCell id="cfnXL0_D_r5Tfxj7R-Hh-68" value="실시간 기상 정보 반환" style="html=1;verticalAlign=bottom;endArrow=open;dashed=1;endSize=8;curved=0;rounded=0;exitX=0;exitY=1;exitDx=0;exitDy=-5;" edge="1" source="cfnXL0_D_r5Tfxj7R-Hh-66" parent="1">
          <mxGeometry relative="1" as="geometry">
            <mxPoint x="598.5" y="380.94000000000005" as="targetPoint" />
          </mxGeometry>
        </mxCell>
        <mxCell id="cfnXL0_D_r5Tfxj7R-Hh-71" value="실시간 교통 정보 요청" style="html=1;verticalAlign=bottom;endArrow=block;curved=0;rounded=0;entryX=0;entryY=0;entryDx=0;entryDy=5;" edge="1" parent="1" target="cfnXL0_D_r5Tfxj7R-Hh-70">
          <mxGeometry relative="1" as="geometry">
            <mxPoint x="598.5" y="467" as="sourcePoint" />
          </mxGeometry>
        </mxCell>
        <mxCell id="cfnXL0_D_r5Tfxj7R-Hh-72" value="실시간 교통 정보 반환" style="html=1;verticalAlign=bottom;endArrow=open;dashed=1;endSize=8;curved=0;rounded=0;exitX=0;exitY=1;exitDx=0;exitDy=-5;" edge="1" parent="1" source="cfnXL0_D_r5Tfxj7R-Hh-70">
          <mxGeometry relative="1" as="geometry">
            <mxPoint x="598.5" y="521" as="targetPoint" />
          </mxGeometry>
        </mxCell>
        <mxCell id="cfnXL0_D_r5Tfxj7R-Hh-75" value="" style="group;" vertex="1" connectable="0" parent="1">
          <mxGeometry x="550" y="658" width="460" height="209" as="geometry" />
        </mxCell>
        <mxCell id="cfnXL0_D_r5Tfxj7R-Hh-44" value="par" style="shape=umlFrame;whiteSpace=wrap;html=1;pointerEvents=0;" vertex="1" parent="cfnXL0_D_r5Tfxj7R-Hh-75">
          <mxGeometry width="460" height="209" as="geometry" />
        </mxCell>
        <mxCell id="cfnXL0_D_r5Tfxj7R-Hh-47" value="" style="endArrow=none;dashed=1;html=1;rounded=0;" edge="1" parent="cfnXL0_D_r5Tfxj7R-Hh-75">
          <mxGeometry width="50" height="50" relative="1" as="geometry">
            <mxPoint x="1.15" y="112.47488584474885" as="sourcePoint" />
            <mxPoint x="458.84999999999997" y="112.47488584474885" as="targetPoint" />
          </mxGeometry>
        </mxCell>
        <mxCell id="cfnXL0_D_r5Tfxj7R-Hh-76" value="" style="group;" vertex="1" connectable="0" parent="1">
          <mxGeometry x="550" y="271" width="1715" height="283" as="geometry" />
        </mxCell>
        <mxCell id="cfnXL0_D_r5Tfxj7R-Hh-77" value="par" style="shape=umlFrame;whiteSpace=wrap;html=1;pointerEvents=0;" vertex="1" parent="cfnXL0_D_r5Tfxj7R-Hh-76">
          <mxGeometry width="1715.0000000000002" height="283" as="geometry" />
        </mxCell>
        <mxCell id="cfnXL0_D_r5Tfxj7R-Hh-78" value="" style="endArrow=none;dashed=1;html=1;rounded=0;" edge="1" parent="cfnXL0_D_r5Tfxj7R-Hh-76">
          <mxGeometry width="50" height="50" relative="1" as="geometry">
            <mxPoint x="4.287500000000002" y="147.05484807976526" as="sourcePoint" />
            <mxPoint x="1710.7125000000005" y="147.05484807976526" as="targetPoint" />
          </mxGeometry>
        </mxCell>
        <mxCell id="cfnXL0_D_r5Tfxj7R-Hh-130" value="도로 정보 요청" style="html=1;verticalAlign=bottom;endArrow=block;curved=0;rounded=0;entryX=0;entryY=0;entryDx=0;entryDy=5;" edge="1" target="cfnXL0_D_r5Tfxj7R-Hh-129" parent="1" source="wIJfSZoXNWVGFBedrrD1-11">
          <mxGeometry x="-0.0017" relative="1" as="geometry">
            <mxPoint x="1499" y="125" as="sourcePoint" />
            <mxPoint as="offset" />
          </mxGeometry>
        </mxCell>
        <mxCell id="cfnXL0_D_r5Tfxj7R-Hh-131" value="도로 정보 반환" style="html=1;verticalAlign=bottom;endArrow=open;dashed=1;endSize=8;curved=0;rounded=0;exitX=0;exitY=1;exitDx=0;exitDy=-5;" edge="1" source="cfnXL0_D_r5Tfxj7R-Hh-129" parent="1" target="wIJfSZoXNWVGFBedrrD1-11">
          <mxGeometry relative="1" as="geometry">
            <mxPoint x="1499" y="195" as="targetPoint" />
          </mxGeometry>
        </mxCell>
        <mxCell id="cfnXL0_D_r5Tfxj7R-Hh-1" value="" style="html=1;points=[[0,0,0,0,5],[0,1,0,0,-5],[1,0,0,0,5],[1,1,0,0,-5]];perimeter=orthogonalPerimeter;outlineConnect=0;targetShapes=umlLifeline;portConstraint=eastwest;newEdgeStyle={&quot;curved&quot;:0,&quot;rounded&quot;:0};" vertex="1" parent="1">
          <mxGeometry x="235" y="1177" width="10" height="540" as="geometry" />
        </mxCell>
        <mxCell id="cfnXL0_D_r5Tfxj7R-Hh-7" value="" style="html=1;points=[[0,0,0,0,5],[0,1,0,0,-5],[1,0,0,0,5],[1,1,0,0,-5]];perimeter=orthogonalPerimeter;outlineConnect=0;targetShapes=umlLifeline;portConstraint=eastwest;newEdgeStyle={&quot;curved&quot;:0,&quot;rounded&quot;:0};" vertex="1" parent="1">
          <mxGeometry x="415" y="1212" width="10" height="475" as="geometry" />
        </mxCell>
        <mxCell id="cfnXL0_D_r5Tfxj7R-Hh-2" value="출발·목적지 입력" style="html=1;verticalAlign=bottom;endArrow=block;curved=0;rounded=0;entryX=0;entryY=0;entryDx=0;entryDy=5;" edge="1" target="cfnXL0_D_r5Tfxj7R-Hh-1" parent="1">
          <mxGeometry relative="1" as="geometry">
            <mxPoint x="60" y="1182" as="sourcePoint" />
          </mxGeometry>
        </mxCell>
        <mxCell id="cfnXL0_D_r5Tfxj7R-Hh-13" value="출발·목적지와&lt;div&gt;인접한 도로 탐색&lt;/div&gt;" style="html=1;align=left;spacingLeft=2;endArrow=block;rounded=0;edgeStyle=orthogonalEdgeStyle;curved=0;rounded=0;" edge="1" parent="1" target="cfnXL0_D_r5Tfxj7R-Hh-12">
          <mxGeometry relative="1" as="geometry">
            <mxPoint x="425" y="1461" as="sourcePoint" />
            <Array as="points">
              <mxPoint x="455" y="1491" />
            </Array>
          </mxGeometry>
        </mxCell>
        <mxCell id="cfnXL0_D_r5Tfxj7R-Hh-16" value="최적 경로 탐색" style="html=1;align=left;spacingLeft=2;endArrow=block;rounded=0;edgeStyle=orthogonalEdgeStyle;curved=0;rounded=0;" edge="1" parent="1" target="cfnXL0_D_r5Tfxj7R-Hh-15">
          <mxGeometry relative="1" as="geometry">
            <mxPoint x="425" y="1531" as="sourcePoint" />
            <Array as="points">
              <mxPoint x="455" y="1561" />
            </Array>
          </mxGeometry>
        </mxCell>
        <mxCell id="cfnXL0_D_r5Tfxj7R-Hh-12" value="" style="html=1;points=[[0,0,0,0,5],[0,1,0,0,-5],[1,0,0,0,5],[1,1,0,0,-5]];perimeter=orthogonalPerimeter;outlineConnect=0;targetShapes=umlLifeline;portConstraint=eastwest;newEdgeStyle={&quot;curved&quot;:0,&quot;rounded&quot;:0};" vertex="1" parent="1">
          <mxGeometry x="420" y="1481" width="10" height="40" as="geometry" />
        </mxCell>
        <mxCell id="cfnXL0_D_r5Tfxj7R-Hh-15" value="" style="html=1;points=[[0,0,0,0,5],[0,1,0,0,-5],[1,0,0,0,5],[1,1,0,0,-5]];perimeter=orthogonalPerimeter;outlineConnect=0;targetShapes=umlLifeline;portConstraint=eastwest;newEdgeStyle={&quot;curved&quot;:0,&quot;rounded&quot;:0};" vertex="1" parent="1">
          <mxGeometry x="420" y="1551" width="10" height="40" as="geometry" />
        </mxCell>
        <mxCell id="cfnXL0_D_r5Tfxj7R-Hh-26" value="" style="html=1;points=[[0,0,0,0,5],[0,1,0,0,-5],[1,0,0,0,5],[1,1,0,0,-5]];perimeter=orthogonalPerimeter;outlineConnect=0;targetShapes=umlLifeline;portConstraint=eastwest;newEdgeStyle={&quot;curved&quot;:0,&quot;rounded&quot;:0};" vertex="1" parent="1">
          <mxGeometry x="420" y="1388" width="10" height="40" as="geometry" />
        </mxCell>
        <mxCell id="cfnXL0_D_r5Tfxj7R-Hh-27" value="경로평가지수 갱신" style="html=1;align=left;spacingLeft=2;endArrow=block;rounded=0;edgeStyle=orthogonalEdgeStyle;curved=0;rounded=0;" edge="1" target="cfnXL0_D_r5Tfxj7R-Hh-26" parent="1">
          <mxGeometry relative="1" as="geometry">
            <mxPoint x="425" y="1368" as="sourcePoint" />
            <Array as="points">
              <mxPoint x="455" y="1398" />
            </Array>
          </mxGeometry>
        </mxCell>
        <mxCell id="cfnXL0_D_r5Tfxj7R-Hh-24" value="opt" style="shape=umlFrame;whiteSpace=wrap;html=1;pointerEvents=0;" vertex="1" parent="1">
          <mxGeometry x="376" y="1240" width="1519" height="200" as="geometry" />
        </mxCell>
        <mxCell id="cfnXL0_D_r5Tfxj7R-Hh-25" value="[경로평가지수 갱신시각 &amp;lt; (현재시각-5분)]" style="text;html=1;align=center;verticalAlign=middle;resizable=0;points=[];autosize=1;strokeColor=none;fillColor=none;" vertex="1" parent="1">
          <mxGeometry x="437" y="1241" width="250" height="30" as="geometry" />
        </mxCell>
        <mxCell id="cfnXL0_D_r5Tfxj7R-Hh-22" value="실시간 경로평가지수 요청" style="html=1;verticalAlign=bottom;endArrow=block;curved=0;rounded=0;entryX=0;entryY=0;entryDx=0;entryDy=5;" edge="1" target="cfnXL0_D_r5Tfxj7R-Hh-21" parent="1">
          <mxGeometry relative="1" as="geometry">
            <mxPoint x="424.9999999999998" y="1296" as="sourcePoint" />
          </mxGeometry>
        </mxCell>
        <mxCell id="cfnXL0_D_r5Tfxj7R-Hh-23" value="실시간 경로평가지수 반환" style="html=1;verticalAlign=bottom;endArrow=open;dashed=1;endSize=8;curved=0;rounded=0;exitX=0;exitY=1;exitDx=0;exitDy=-5;" edge="1" source="cfnXL0_D_r5Tfxj7R-Hh-21" parent="1">
          <mxGeometry relative="1" as="geometry">
            <mxPoint x="424.9999999999998" y="1343" as="targetPoint" />
          </mxGeometry>
        </mxCell>
        <mxCell id="cfnXL0_D_r5Tfxj7R-Hh-3" value="경로 및 도로 정보 반환" style="html=1;verticalAlign=bottom;endArrow=open;dashed=1;endSize=8;curved=0;rounded=0;exitX=0;exitY=1;exitDx=0;exitDy=-5;" edge="1" parent="1">
          <mxGeometry x="-0.0371" y="-5" relative="1" as="geometry">
            <mxPoint x="58.44736842105249" y="1711.999999999999" as="targetPoint" />
            <mxPoint x="235" y="1711.999999999999" as="sourcePoint" />
            <mxPoint as="offset" />
          </mxGeometry>
        </mxCell>
        <mxCell id="cfnXL0_D_r5Tfxj7R-Hh-8" value="출발·목적지 간 경로 탐색 요청" style="html=1;verticalAlign=bottom;endArrow=block;curved=0;rounded=0;entryX=0;entryY=0;entryDx=0;entryDy=5;" edge="1" target="cfnXL0_D_r5Tfxj7R-Hh-7" parent="1" source="cfnXL0_D_r5Tfxj7R-Hh-1">
          <mxGeometry relative="1" as="geometry">
            <mxPoint x="250" y="1217" as="sourcePoint" />
          </mxGeometry>
        </mxCell>
        <mxCell id="cfnXL0_D_r5Tfxj7R-Hh-9" value="경로 및 도로 정보 반환" style="html=1;verticalAlign=bottom;endArrow=open;dashed=1;endSize=8;curved=0;rounded=0;exitX=0;exitY=1;exitDx=0;exitDy=-5;exitPerimeter=0;" edge="1" source="cfnXL0_D_r5Tfxj7R-Hh-7" parent="1" target="cfnXL0_D_r5Tfxj7R-Hh-1">
          <mxGeometry relative="1" as="geometry">
            <mxPoint x="245" y="1439.4999999999995" as="targetPoint" />
            <mxPoint x="415" y="1594.4999999999986" as="sourcePoint" />
          </mxGeometry>
        </mxCell>
        <mxCell id="cfnXL0_D_r5Tfxj7R-Hh-143" value="경로 내 도로 ID 전달" style="html=1;verticalAlign=bottom;endArrow=block;curved=0;rounded=0;entryX=0;entryY=0;entryDx=0;entryDy=5;" edge="1" parent="1" target="cfnXL0_D_r5Tfxj7R-Hh-142" source="cfnXL0_D_r5Tfxj7R-Hh-7">
          <mxGeometry relative="1" as="geometry">
            <mxPoint x="418.96153846153834" y="1611.0000000000005" as="sourcePoint" />
          </mxGeometry>
        </mxCell>
        <mxCell id="cfnXL0_D_r5Tfxj7R-Hh-144" value="도로 정보 반환" style="html=1;verticalAlign=bottom;endArrow=open;dashed=1;endSize=8;curved=0;rounded=0;exitX=0;exitY=1;exitDx=0;exitDy=-5;" edge="1" parent="1" source="cfnXL0_D_r5Tfxj7R-Hh-142" target="cfnXL0_D_r5Tfxj7R-Hh-7">
          <mxGeometry relative="1" as="geometry">
            <mxPoint x="418.96153846153834" y="1658.0000000000005" as="targetPoint" />
          </mxGeometry>
        </mxCell>
        <mxCell id="cfnXL0_D_r5Tfxj7R-Hh-28" value="Loop" style="shape=umlFrame;whiteSpace=wrap;html=1;pointerEvents=0;" vertex="1" parent="1">
          <mxGeometry x="513" y="227" width="1782" height="910" as="geometry" />
        </mxCell>
        <mxCell id="cfnXL0_D_r5Tfxj7R-Hh-54" value="[5분마다]" style="text;html=1;align=center;verticalAlign=middle;resizable=0;points=[];autosize=1;strokeColor=none;fillColor=none;" vertex="1" parent="1">
          <mxGeometry x="595" y="229" width="67" height="26" as="geometry" />
        </mxCell>
        <mxCell id="cfnXL0_D_r5Tfxj7R-Hh-66" value="" style="html=1;points=[[0,0,0,0,5],[0,1,0,0,-5],[1,0,0,0,5],[1,1,0,0,-5]];perimeter=orthogonalPerimeter;outlineConnect=0;targetShapes=umlLifeline;portConstraint=eastwest;newEdgeStyle={&quot;curved&quot;:0,&quot;rounded&quot;:0};" vertex="1" parent="1">
          <mxGeometry x="2035" y="326" width="10" height="59.94" as="geometry" />
        </mxCell>
        <mxCell id="cfnXL0_D_r5Tfxj7R-Hh-153" value="" style="html=1;points=[[0,0,0,0,5],[0,1,0,0,-5],[1,0,0,0,5],[1,1,0,0,-5]];perimeter=orthogonalPerimeter;outlineConnect=0;targetShapes=umlLifeline;portConstraint=eastwest;newEdgeStyle={&quot;curved&quot;:0,&quot;rounded&quot;:0};" vertex="1" parent="1">
          <mxGeometry x="1855" y="1079" width="10" height="42" as="geometry" />
        </mxCell>
        <mxCell id="cfnXL0_D_r5Tfxj7R-Hh-154" value="교통안전지수, 교통혼잡지수, 도로통행시간, 경로평가지수 저장" style="html=1;verticalAlign=bottom;endArrow=open;curved=0;rounded=0;endFill=0;" edge="1" target="cfnXL0_D_r5Tfxj7R-Hh-153" parent="1">
          <mxGeometry relative="1" as="geometry">
            <mxPoint x="598.5" y="1079" as="sourcePoint" />
          </mxGeometry>
        </mxCell>
        <mxCell id="cfnXL0_D_r5Tfxj7R-Hh-170" value="경로 안내 페이지 요청" style="html=1;verticalAlign=bottom;endArrow=block;curved=0;rounded=0;entryX=0;entryY=0;entryDx=0;entryDy=5;" edge="1" target="cfnXL0_D_r5Tfxj7R-Hh-169" parent="1">
          <mxGeometry relative="1" as="geometry">
            <mxPoint x="58.66666666666674" y="1784" as="sourcePoint" />
          </mxGeometry>
        </mxCell>
        <mxCell id="cfnXL0_D_r5Tfxj7R-Hh-171" value="경로 안내 페이지 반환" style="html=1;verticalAlign=bottom;endArrow=open;dashed=1;endSize=8;curved=0;rounded=0;exitX=0;exitY=1;exitDx=0;exitDy=-5;" edge="1" source="cfnXL0_D_r5Tfxj7R-Hh-169" parent="1">
          <mxGeometry relative="1" as="geometry">
            <mxPoint x="58.66666666666674" y="1854" as="targetPoint" />
          </mxGeometry>
        </mxCell>
        <mxCell id="cfnXL0_D_r5Tfxj7R-Hh-173" value="" style="html=1;points=[[0,0,0,0,5],[0,1,0,0,-5],[1,0,0,0,5],[1,1,0,0,-5]];perimeter=orthogonalPerimeter;outlineConnect=0;targetShapes=umlLifeline;portConstraint=eastwest;newEdgeStyle={&quot;curved&quot;:0,&quot;rounded&quot;:0};" vertex="1" parent="1">
          <mxGeometry x="235" y="1923" width="10" height="80" as="geometry" />
        </mxCell>
        <mxCell id="cfnXL0_D_r5Tfxj7R-Hh-174" value="개요 페이지 요청" style="html=1;verticalAlign=bottom;endArrow=block;curved=0;rounded=0;entryX=0;entryY=0;entryDx=0;entryDy=5;" edge="1" parent="1" target="cfnXL0_D_r5Tfxj7R-Hh-173">
          <mxGeometry relative="1" as="geometry">
            <mxPoint x="59" y="1928" as="sourcePoint" />
          </mxGeometry>
        </mxCell>
        <mxCell id="cfnXL0_D_r5Tfxj7R-Hh-175" value="개요 페이지 반환" style="html=1;verticalAlign=bottom;endArrow=open;dashed=1;endSize=8;curved=0;rounded=0;exitX=0;exitY=1;exitDx=0;exitDy=-5;" edge="1" parent="1" source="cfnXL0_D_r5Tfxj7R-Hh-173">
          <mxGeometry relative="1" as="geometry">
            <mxPoint x="59" y="1998" as="targetPoint" />
          </mxGeometry>
        </mxCell>
      </root>
    </mxGraphModel>
  </diagram>
</mxfile>
